<?xml version="1.0" encoding="utf-8"?>
<!-- Generator: Adobe Illustrator 25.2.2, SVG Export Plug-In . SVG Version: 6.00 Build 0)  -->
<svg version="1.1" id="Layer_1" xmlns="http://www.w3.org/2000/svg" xmlns:xlink="http://www.w3.org/1999/xlink" x="0px" y="0px"
	 viewBox="0 0 100 100" style="enable-background:new 0 0 100 100;" xml:space="preserve">
<g>
	<g>
		<path d="M71.2,84.1H28.8c-2.1,0-3.7-1.7-3.7-3.7V19.6c0-2.1,1.7-3.7,3.7-3.7h42.4c2.1,0,3.7,1.7,3.7,3.7v60.7
			C74.9,82.4,73.2,84.1,71.2,84.1z M28.8,18.2c-0.8,0-1.5,0.7-1.5,1.5v60.7c0,0.8,0.7,1.5,1.5,1.5h42.4c0.8,0,1.5-0.7,1.5-1.5V19.6
			c0-0.8-0.7-1.5-1.5-1.5C71.2,18.2,28.8,18.2,28.8,18.2z"/>
	</g>
	<g>
		<path d="M67.2,36H32.8c-0.6,0-1.1-0.5-1.1-1.1V23.8c0-0.6,0.5-1.1,1.1-1.1h34.4c0.6,0,1.1,0.5,1.1,1.1v11.1
			C68.3,35.5,67.8,36,67.2,36z M33.9,33.8h32.2v-8.9H33.9V33.8z"/>
	</g>
	<g>
		<path d="M40.6,49.2h-7.8c-0.6,0-1.1-0.5-1.1-1.1v-7.8c0-0.6,0.5-1.1,1.1-1.1h7.8c0.6,0,1.1,0.5,1.1,1.1v7.8
			C41.7,48.7,41.2,49.2,40.6,49.2z M33.9,46.9h5.5v-5.5h-5.5V46.9z"/>
	</g>
	<g>
		<path d="M53.9,49.2h-7.8c-0.6,0-1.1-0.5-1.1-1.1v-7.8c0-0.6,0.5-1.1,1.1-1.1h7.8c0.6,0,1.1,0.5,1.1,1.1v7.8
			C55,48.7,54.5,49.2,53.9,49.2z M47.2,46.9h5.5v-5.5h-5.5V46.9z"/>
	</g>
	<g>
		<path d="M67.2,49.2h-7.8c-0.6,0-1.1-0.5-1.1-1.1v-7.8c0-0.6,0.5-1.1,1.1-1.1h7.8c0.6,0,1.1,0.5,1.1,1.1v7.8
			C68.3,48.7,67.8,49.2,67.2,49.2z M60.5,46.9h5.5v-5.5h-5.5V46.9z"/>
	</g>
	<g>
		<path d="M40.6,62.4h-7.8c-0.6,0-1.1-0.5-1.1-1.1v-7.8c0-0.6,0.5-1.1,1.1-1.1h7.8c0.6,0,1.1,0.5,1.1,1.1v7.8
			C41.7,61.9,41.2,62.4,40.6,62.4z M33.9,60.1h5.5v-5.5h-5.5V60.1z"/>
	</g>
	<g>
		<path d="M53.9,62.4h-7.8c-0.6,0-1.1-0.5-1.1-1.1v-7.8c0-0.6,0.5-1.1,1.1-1.1h7.8c0.6,0,1.1,0.5,1.1,1.1v7.8
			C55,61.9,54.5,62.4,53.9,62.4z M47.2,60.1h5.5v-5.5h-5.5V60.1z"/>
	</g>
	<g>
		<path d="M67.2,62.4h-7.8c-0.6,0-1.1-0.5-1.1-1.1v-7.8c0-0.6,0.5-1.1,1.1-1.1h7.8c0.6,0,1.1,0.5,1.1,1.1v7.8
			C68.3,61.9,67.8,62.4,67.2,62.4z M60.5,60.1h5.5v-5.5h-5.5V60.1z"/>
	</g>
	<g>
		<path d="M40.6,75.6h-7.8c-0.6,0-1.1-0.5-1.1-1.1v-7.8c0-0.6,0.5-1.1,1.1-1.1h7.8c0.6,0,1.1,0.5,1.1,1.1v7.8
			C41.7,75.1,41.2,75.6,40.6,75.6z M33.9,73.3h5.5v-5.5h-5.5V73.3z"/>
	</g>
	<g>
		<path d="M53.9,75.6h-7.8c-0.6,0-1.1-0.5-1.1-1.1v-7.8c0-0.6,0.5-1.1,1.1-1.1h7.8c0.6,0,1.1,0.5,1.1,1.1v7.8
			C55,75.1,54.5,75.6,53.9,75.6z M47.2,73.3h5.5v-5.5h-5.5V73.3z"/>
	</g>
	<g>
		<path d="M67.2,75.6h-7.8c-0.6,0-1.1-0.5-1.1-1.1v-7.8c0-0.6,0.5-1.1,1.1-1.1h7.8c0.6,0,1.1,0.5,1.1,1.1v7.8
			C68.3,75.1,67.8,75.6,67.2,75.6z M60.5,73.3h5.5v-5.5h-5.5V73.3z"/>
	</g>
</g>
</svg>
