<?xml version="1.0" encoding="utf-8"?>
<!-- Generator: Adobe Illustrator 25.2.2, SVG Export Plug-In . SVG Version: 6.00 Build 0)  -->
<svg version="1.1" id="Layer_1" xmlns="http://www.w3.org/2000/svg" xmlns:xlink="http://www.w3.org/1999/xlink" x="0px" y="0px"
	 viewBox="0 0 100 100" style="enable-background:new 0 0 100 100;" xml:space="preserve">
<style type="text/css">
	.st0{fill:none;}
	.st1{fill:#FFFFFF;}
</style>
<g>
	<path class="st0" d="M57.2,15.5c0.6,0.1,1.1,0,1.6-0.3c0.5-0.3,0.9-0.9,1-1.7c0.2-0.8,0.1-1.4-0.2-1.9c-0.3-0.5-0.8-0.8-1.3-1
		c-0.6-0.1-1.1,0-1.6,0.3c-0.5,0.3-0.8,0.9-1,1.7c-0.2,0.8-0.1,1.4,0.2,1.9C56.2,15.1,56.7,15.4,57.2,15.5z"/>
	<path class="st0" d="M68.4,81.3c-0.5-0.2-1-0.1-1.5,0.2c-0.5,0.3-0.8,0.7-0.9,1.2c-0.1,0.5,0,1.1,0.3,1.7s0.8,1,1.3,1.2
		s1,0.1,1.5-0.2c0.5-0.3,0.8-0.7,0.9-1.2c0.1-0.5,0-1.1-0.3-1.7C69.3,81.8,68.9,81.4,68.4,81.3z"/>
	<path class="st0" d="M23.8,76.3c-0.5,0-1,0.3-1.5,0.9c-0.5,0.5-0.7,1.1-0.7,1.6c0,0.5,0.2,1,0.6,1.3c0.4,0.4,0.9,0.5,1.4,0.5
		c0.6,0,1.1-0.3,1.5-0.8c0.5-0.5,0.7-1.1,0.7-1.6c0-0.5-0.2-1-0.6-1.3C24.8,76.4,24.3,76.2,23.8,76.3z"/>
	<path class="st0" d="M76.6,21c-0.1-0.5-0.3-0.9-0.7-1.3c-0.4-0.3-0.8-0.5-1.3-0.5c-0.5,0-0.9,0.2-1.4,0.6l2.9,2.6
		C76.5,21.9,76.6,21.5,76.6,21z"/>
	<path class="st0" d="M24.5,23.9c0.6,0,1.2-0.1,1.6-0.5c0.4-0.4,0.7-0.9,0.7-1.5c0.1-0.6-0.2-1.2-0.7-1.8s-1.1-0.9-1.7-0.9
		c-0.6,0-1.2,0.1-1.6,0.5c-0.4,0.4-0.7,0.9-0.7,1.5c0,0.6,0.2,1.2,0.7,1.8C23.3,23.5,23.8,23.8,24.5,23.9z"/>
	<path class="st0" d="M79.7,70.2c-0.4,0.1-0.8,0.3-1.1,0.7c-0.3,0.4-0.4,0.8-0.3,1.2c0.1,0.4,0.3,0.8,0.6,1.2l2.1-2.9
		C80.6,70.2,80.2,70.1,79.7,70.2z"/>
	<g>
		<path class="st1" d="M21.5,53.2c0-0.3-0.1-0.5-0.1-0.8C21.5,52.7,21.5,52.9,21.5,53.2z"/>
	</g>
	<g>
		<path class="st1" d="M21.7,54.2c0-0.1,0-0.1,0-0.2C21.7,54.1,21.7,54.2,21.7,54.2z"/>
	</g>
	<g>
		<path class="st1" d="M21.4,51.6c0-0.2,0-0.4,0-0.7C21.4,51.2,21.4,51.4,21.4,51.6z"/>
	</g>
	<g>
		<path class="st1" d="M77.3,50.9c0,0.2,0,0.4,0,0.6C77.3,51.2,77.3,51.1,77.3,50.9z"/>
	</g>
	<g>
		<path class="st1" d="M61.2,24.4c1,0.5,2,1,3,1.6c1,0.6,1.9,1.2,2.8,1.9c0.9,0.7,1.7,1.4,2.5,2.2c0.3,0.3,0.6,0.6,0.9,0.9
			c-4-4.5-9.4-7.6-15.5-8.9c1.1,0.2,2.2,0.5,3.2,0.9C59.1,23.5,60.1,24,61.2,24.4z"/>
	</g>
	<g>
		<path class="st1" d="M77.4,49.8c0-0.4,0-0.7,0-1.1c0,0.5,0,0.9,0,1.4C77.3,50,77.4,49.9,77.4,49.8z"/>
	</g>
	<g>
		<path class="st1" d="M34.4,26.2c0.9-0.6,1.9-1.1,2.9-1.6c1-0.5,2-0.9,3.1-1.3c0.9-0.3,1.8-0.6,2.6-0.8c-4.8,1.1-9,3.4-12.5,6.6
			c0.4-0.4,0.8-0.7,1.2-1C32.5,27.4,33.4,26.8,34.4,26.2z"/>
	</g>
	<g>
		<path class="st1" d="M21.3,49.8c0,0,0,0.1,0,0.1c0-0.1,0-0.2,0-0.2C21.3,49.7,21.3,49.7,21.3,49.8z"/>
	</g>
	<g>
		<path class="st1" d="M76.1,41.4c0,0,0,0.1,0,0.1C76.1,41.5,76.1,41.4,76.1,41.4z"/>
	</g>
	<g>
		<path class="st1" d="M53.5,22.1c0.4,0.1,0.7,0.1,1.1,0.2C54.2,22.2,53.8,22.1,53.5,22.1z"/>
	</g>
	<g>
		<path class="st1" d="M76.3,42.3c0.1,0.3,0.2,0.6,0.2,0.9C76.5,42.9,76.4,42.6,76.3,42.3z"/>
	</g>
	<g>
		<path class="st1" d="M76.7,43.7c0.1,0.5,0.2,1,0.3,1.5C76.9,44.7,76.8,44.2,76.7,43.7z"/>
	</g>
	<g>
		<path class="st1" d="M77,45.2c0.2,1.1,0.3,2.3,0.4,3.4C77.3,47.4,77.2,46.3,77,45.2z"/>
	</g>
	<path d="M42.4,54.2c0.5-0.5,0.9-0.9,1.2-1.1s0.6-0.6,1.1-1.1c0.5-0.5,0.8-0.9,1.1-1.3c0.3-0.4,0.5-0.8,0.8-1.3
		c0.5-0.9,0.8-1.9,0.8-2.9c0-1.4-0.5-2.6-1.4-3.5c-0.9-0.9-2.2-1.4-3.8-1.4c-1.6,0-2.9,0.4-3.9,1.4c-1,0.9-1.5,2.2-1.5,4h3
		c0-0.8,0.2-1.5,0.6-2c0.4-0.5,1-0.7,1.7-0.7c1.5,0,2.2,0.8,2.2,2.4c0,0.8-0.4,1.7-1.1,2.8c-0.3,0.4-0.7,0.9-1.3,1.5
		c-0.6,0.6-1.1,1.1-1.5,1.4c-0.4,0.4-1,0.9-1.8,1.6c-0.8,0.7-1.4,1.2-1.8,1.6v2.3h11v-2.6h-6.5C41.5,55,41.9,54.7,42.4,54.2z"/>
	<path d="M52,58c0.5,0,0.9-0.2,1.3-0.5c0.3-0.3,0.5-0.8,0.5-1.3s-0.2-0.9-0.5-1.3c-0.3-0.3-0.8-0.5-1.3-0.5c-0.5,0-0.9,0.2-1.3,0.5
		c-0.3,0.3-0.5,0.8-0.5,1.3c0,0.5,0.2,0.9,0.5,1.3C51,57.8,51.4,58,52,58z"/>
	<path d="M52,48.9c0.5,0,0.9-0.2,1.3-0.5c0.3-0.3,0.5-0.8,0.5-1.3c0-0.5-0.2-0.9-0.5-1.3c-0.3-0.3-0.8-0.5-1.3-0.5
		c-0.5,0-0.9,0.2-1.3,0.5c-0.3,0.3-0.5,0.8-0.5,1.3c0,0.5,0.2,0.9,0.5,1.3C51,48.7,51.4,48.9,52,48.9z"/>
	<polygon points="58.7,58 61.9,58 61.9,42.2 56.3,42.2 56.3,45.1 58.7,45.1 	"/>
	<path d="M17.5,74.7c0-0.2,0.1-0.3,0.3-0.4l2.9-2.2l1,1.3l1.2-0.9l-1-1.3l1.5-1.1l-1.1-1.5l-1.5,1.1L20.3,69l-1.2,0.9l0.5,0.6
		l-2.9,2.2c-0.6,0.5-1,1-1,1.5c0,0.5,0.2,1.1,0.6,1.7l0.7,1l1.3-1l-0.6-0.7C17.6,75.1,17.5,74.9,17.5,74.7z"/>
	<path d="M23.5,74.5c-1,0-1.9,0.5-2.7,1.3c-0.8,0.8-1.1,1.8-1.1,2.8c0.1,1,0.5,1.9,1.3,2.6c0.8,0.7,1.7,1.1,2.8,1.1
		c1,0,1.9-0.5,2.7-1.3c0.8-0.9,1.1-1.8,1-2.8c-0.1-1-0.5-1.9-1.3-2.6C25.4,74.8,24.5,74.5,23.5,74.5z M25.1,79.7
		c-0.5,0.5-1,0.8-1.5,0.8c-0.6,0-1-0.1-1.4-0.5c-0.4-0.4-0.6-0.8-0.6-1.3c0-0.5,0.2-1.1,0.7-1.6c0.5-0.5,1-0.8,1.5-0.9
		c0.5,0,1,0.1,1.4,0.5c0.4,0.4,0.6,0.8,0.6,1.3C25.8,78.6,25.6,79.2,25.1,79.7z"/>
	<path d="M36.3,82l-1.1-0.5l0.2-0.4c0.2-0.3,0.3-0.5,0.6-0.6c0.2-0.1,0.5,0,0.8,0.2l0.7-1.4c-0.9-0.4-1.7-0.6-2.3-0.4
		c-0.6,0.2-1.1,0.7-1.5,1.5l-0.2,0.4l-0.7-0.3l-0.7,1.4l0.7,0.3l-2.5,5.3l1.7,0.8l2.5-5.3l1.1,0.5L36.3,82z"/>
	<path d="M38.8,84.3l0.4-1.3l-1.8-0.6l-2.2,7.1l1.8,0.6l1.1-3.6c0.2-0.7,0.5-1.1,0.8-1.3c0.4-0.2,0.8-0.2,1.3,0l0.4,0.1l0.6-1.8
		C40.4,83.3,39.6,83.5,38.8,84.3z"/>
	<path d="M47,88.6c-0.1,0.6-0.3,1-0.6,1.3c-0.3,0.3-0.8,0.4-1.3,0.3c-0.5-0.1-0.9-0.3-1.2-0.6c-0.3-0.3-0.4-0.8-0.3-1.4l0.4-4.1
		L42.2,84l-0.4,4.3c-0.1,1,0.1,1.8,0.6,2.4c0.5,0.6,1.1,1,2,1.1c1.1,0.1,1.9-0.2,2.4-1l-0.1,1.1l1.9,0.2l0.8-7.4l-1.9-0.2L47,88.6z"
		/>
	<path d="M54.9,90.1c-0.5,0.1-1-0.1-1.3-0.4c-0.4-0.4-0.6-0.9-0.7-1.6s0-1.2,0.2-1.7c0.3-0.4,0.7-0.7,1.2-0.8
		c0.7-0.1,1.2,0.1,1.6,0.7l2-0.3c-0.3-0.8-0.8-1.3-1.5-1.7c-0.7-0.4-1.4-0.5-2.3-0.4c-1.1,0.1-1.9,0.6-2.5,1.4
		c-0.6,0.8-0.8,1.7-0.6,2.9c0.2,1.1,0.6,2,1.4,2.6s1.7,0.8,2.8,0.7c0.9-0.1,1.6-0.4,2.1-1c0.6-0.5,0.9-1.2,1-2l-2,0.3
		C56,89.6,55.6,90,54.9,90.1z"/>
	<path d="M63.2,88c-0.3,0.1-0.5,0.1-0.6,0s-0.3-0.2-0.3-0.4l-1.1-3.5l1.6-0.5l-0.5-1.5l-1.6,0.5L60,80.9l-1.8,0.6l0.6,1.8L58,83.5
		l0.5,1.5l0.8-0.2l1.1,3.5c0.2,0.8,0.6,1.3,1.1,1.5c0.5,0.2,1.1,0.2,1.8-0.1l1.1-0.4L64,87.7L63.2,88z"/>
	<path d="M69,79.6c-1-0.3-1.9-0.1-2.9,0.4c-0.9,0.5-1.6,1.3-1.9,2.3c-0.3,1-0.2,2,0.4,3s1.3,1.6,2.3,1.9c1,0.3,1.9,0.1,2.9-0.4
		c1-0.5,1.6-1.3,1.9-2.3c0.3-1,0.2-2-0.4-3C70.8,80.5,70,79.9,69,79.6z M70,84.2c-0.1,0.5-0.4,0.9-0.9,1.2c-0.5,0.3-0.9,0.3-1.5,0.2
		s-0.9-0.6-1.3-1.2c-0.3-0.6-0.5-1.2-0.3-1.7s0.4-0.9,0.9-1.2c0.5-0.3,1-0.3,1.5-0.2c0.5,0.2,0.9,0.5,1.3,1.2
		C70,83.1,70.1,83.6,70,84.2z"/>
	<path d="M77.1,76.9c-0.4,0-0.8,0-1.2,0.2c-0.4,0.2-0.8,0.4-1.1,0.6c-0.4,0.2-0.7,0.4-1,0.5c-0.3,0.1-0.6,0-0.7-0.1
		c-0.2-0.2-0.2-0.4-0.2-0.6c0.1-0.2,0.2-0.5,0.5-0.7c0.5-0.5,1-0.5,1.5-0.1l1.4-1.3c-0.5-0.5-1.1-0.8-1.8-0.7c-0.7,0-1.4,0.4-2.1,1
		c-0.7,0.6-1.1,1.3-1.2,1.9c-0.1,0.7,0,1.3,0.5,1.8c0.3,0.4,0.7,0.6,1.1,0.6c0.4,0,0.8-0.1,1.2-0.3c0.4-0.2,0.8-0.4,1.1-0.6
		c0.4-0.2,0.7-0.4,1-0.5c0.3-0.1,0.6,0,0.7,0.2c0.2,0.2,0.2,0.4,0.2,0.7c-0.1,0.3-0.2,0.5-0.5,0.7c-0.5,0.5-1.1,0.5-1.5,0.1
		l-1.4,1.3c0.6,0.5,1.2,0.8,1.9,0.7c0.7-0.1,1.4-0.4,2-1c0.7-0.6,1.1-1.2,1.2-1.9c0.1-0.7,0-1.3-0.5-1.8
		C77.9,77.2,77.6,76.9,77.1,76.9z"/>
	<path d="M83.7,70.3l-1.2,1.7c0.3,0.6,0.2,1.1-0.2,1.7c-0.3,0.4-0.6,0.6-1.1,0.7c-0.4,0.1-0.8,0-1.3-0.2l3.2-4.4
		c-0.2-0.2-0.3-0.3-0.6-0.5c-0.9-0.7-1.8-0.9-2.8-0.7c-1,0.2-1.8,0.7-2.4,1.6c-0.6,0.9-0.9,1.8-0.7,2.8c0.2,1,0.7,1.8,1.7,2.5
		c0.9,0.7,1.9,0.9,2.9,0.8c1-0.1,1.8-0.7,2.4-1.5c0.5-0.7,0.8-1.4,0.8-2.2C84.3,71.5,84.1,70.9,83.7,70.3z M78.3,72.2
		c-0.1-0.4,0.1-0.8,0.3-1.2c0.3-0.4,0.6-0.6,1.1-0.7c0.4-0.1,0.9,0,1.3,0.3L79,73.3C78.6,73,78.4,72.6,78.3,72.2z"/>
	<path d="M24,26c1.1,0.1,2.1-0.2,2.9-0.9s1.2-1.7,1-2.9l1,1.1c0.5,0.6,0.7,1.1,0.7,1.6c0,0.5-0.3,1-0.7,1.3
		c-0.4,0.4-0.8,0.6-1.3,0.7c-0.4,0.1-0.8,0-1.1-0.2l-1.6,1.4c0.7,0.7,1.5,1,2.4,0.9c0.9-0.1,1.8-0.6,2.8-1.4c1-0.8,1.5-1.8,1.5-2.8
		c0-1-0.3-2-1.1-2.9L25,15.6l-1.6,1.4l0.8,1c-1.1-0.3-2-0.1-2.9,0.6c-0.9,0.7-1.3,1.7-1.3,2.7c0,1.1,0.3,2.1,1.2,3
		C22,25.3,22.9,25.8,24,26z M22.8,19.7c0.4-0.4,1-0.6,1.6-0.5c0.6,0,1.2,0.3,1.7,0.9c0.5,0.6,0.7,1.2,0.7,1.8c0,0.6-0.3,1.1-0.7,1.5
		c-0.4,0.4-1,0.6-1.6,0.5c-0.6,0-1.2-0.4-1.7-0.9c-0.5-0.6-0.7-1.2-0.7-1.8C22.2,20.6,22.4,20.1,22.8,19.7z"/>
	<rect x="29.2" y="10.1" transform="matrix(0.8734 -0.487 0.487 0.8734 -3.8157 16.728)" width="2.1" height="11.1"/>
	<path d="M36,18c0.8,0.4,1.6,0.5,2.5,0.2c1.1-0.4,1.8-1.1,2.1-2.1l0.4,1.2l2-0.6l-2.5-7.9l-2,0.6l1.4,4.4c0.2,0.6,0.2,1.1,0,1.6
		s-0.6,0.7-1.1,0.9c-0.6,0.2-1,0.1-1.4-0.1c-0.4-0.2-0.7-0.7-0.9-1.3L35,10.5l-2,0.6l1.5,4.7C34.7,16.8,35.3,17.6,36,18z"/>
	<path d="M48.2,16.5c1,0,1.8-0.3,2.5-0.9c0.7-0.5,1.1-1.2,1.3-2.1l-2.3,0.1c-0.3,0.7-0.8,1.1-1.6,1.1c-0.6,0-1.1-0.2-1.5-0.6
		c-0.4-0.4-0.6-1-0.6-1.8c0-0.8,0.1-1.4,0.5-1.8c0.3-0.5,0.8-0.7,1.4-0.7c0.8,0,1.4,0.3,1.7,1l2.3-0.1c-0.3-0.9-0.7-1.6-1.4-2
		c-0.7-0.5-1.6-0.7-2.6-0.6c-1.2,0-2.2,0.5-2.9,1.3c-0.7,0.8-1.1,1.9-1,3.1c0,1.3,0.5,2.3,1.2,3.1C46,16.1,47,16.5,48.2,16.5z"/>
	<path d="M56.8,17.3c1.2,0.3,2.3,0.1,3.3-0.5c1-0.6,1.6-1.5,1.9-2.8c0.3-1.2,0.1-2.3-0.5-3.3c-0.6-0.9-1.5-1.6-2.7-1.8
		c-1.2-0.3-2.3-0.1-3.2,0.5s-1.6,1.5-1.9,2.7c-0.3,1.2-0.1,2.3,0.5,3.3C54.7,16.4,55.6,17,56.8,17.3z M55.7,12.6
		c0.2-0.8,0.5-1.3,1-1.7c0.5-0.3,1-0.4,1.6-0.3c0.6,0.1,1,0.5,1.3,1c0.3,0.5,0.4,1.2,0.2,1.9c-0.2,0.8-0.5,1.3-1,1.7
		c-0.5,0.3-1.1,0.4-1.6,0.3c-0.6-0.1-1-0.5-1.3-1C55.6,14.1,55.5,13.4,55.7,12.6z"/>
	<path d="M64.7,20.2c0.9,0.4,1.7,0.6,2.5,0.5c0.8-0.1,1.3-0.5,1.7-1.2c0.3-0.5,0.3-1,0.2-1.4c-0.1-0.5-0.4-0.9-0.7-1.2
		c-0.3-0.3-0.7-0.6-1.1-0.9c-0.4-0.3-0.7-0.6-0.9-0.9c-0.2-0.3-0.3-0.6-0.1-0.8c0.1-0.2,0.3-0.4,0.6-0.4c0.3,0,0.6,0,0.9,0.2
		c0.7,0.4,0.9,0.9,0.7,1.5l1.9,1c0.3-0.8,0.4-1.5,0-2.2c-0.3-0.7-0.9-1.3-1.8-1.8c-0.9-0.5-1.7-0.6-2.5-0.5
		c-0.8,0.2-1.3,0.6-1.6,1.2c-0.2,0.5-0.3,0.9-0.2,1.4c0.1,0.4,0.4,0.8,0.7,1.2c0.4,0.3,0.7,0.6,1.1,0.9c0.4,0.3,0.7,0.6,0.9,0.9
		c0.2,0.3,0.3,0.6,0.1,0.8c-0.1,0.3-0.3,0.4-0.6,0.4c-0.3,0-0.6,0-1-0.2c-0.7-0.4-1-0.9-0.7-1.6l-1.9-1c-0.3,0.8-0.3,1.6,0,2.3
		C63.2,19.2,63.8,19.7,64.7,20.2z"/>
	<path d="M71.4,24.7c0.7,0.7,1.5,1,2.4,1.1c0.8,0.1,1.6-0.1,2.3-0.5l-1.7-1.5c-0.7,0.2-1.3,0.1-1.8-0.4c-0.4-0.4-0.6-0.8-0.7-1.3
		s0.1-0.9,0.4-1.4l4.5,4c0.2-0.2,0.4-0.3,0.6-0.6c0.8-0.9,1.2-2,1.1-3c-0.1-1.1-0.6-2-1.5-2.8c-0.9-0.8-1.9-1.2-3-1.1
		c-1.1,0.1-2.1,0.6-2.9,1.6c-0.9,1-1.3,2-1.2,3.1C70,23,70.5,23.9,71.4,24.7z M74.5,19.2c0.5,0,0.9,0.2,1.3,0.5
		c0.4,0.3,0.6,0.8,0.7,1.3c0.1,0.5-0.1,1-0.4,1.4l-2.9-2.6C73.6,19.4,74.1,19.2,74.5,19.2z"/>
	<path d="M74.7,61.9c1.6-3.3,2.4-6.9,2.6-10.5c0-0.2,0-0.4,0-0.6c0-0.3,0-0.5,0-0.8c0-0.5,0-0.9,0-1.4c0,0,0-0.1,0-0.1
		c-0.1-1.1-0.2-2.3-0.4-3.4c0,0,0,0,0,0c-0.1-0.5-0.2-1-0.3-1.5c0-0.2-0.1-0.3-0.1-0.4c-0.1-0.3-0.2-0.6-0.2-0.9
		c-0.1-0.3-0.2-0.6-0.2-0.8c0,0,0-0.1,0-0.1c-0.6-2-1.5-4-2.6-5.8c-0.6-1-1.2-1.9-1.9-2.8c-0.4-0.6-0.9-1.1-1.3-1.6
		c-0.3-0.3-0.6-0.6-0.9-0.9c-0.8-0.8-1.6-1.6-2.5-2.2c-0.9-0.7-1.8-1.3-2.8-1.9c-1-0.6-1.9-1.1-3-1.6c-1-0.5-2.1-0.9-3.1-1.3
		c-1.1-0.4-2.1-0.6-3.2-0.9c0,0,0,0,0,0c-0.1,0-0.2,0-0.2,0c-0.4-0.1-0.7-0.1-1.1-0.2c-0.7-0.1-1.4-0.2-2-0.2
		c-0.4,0-0.8-0.1-1.2-0.1l0,0c-0.6,0-1.2-0.1-1.8,0c-0.6,0-1.1,0.1-1.7,0.1c-1.1,0.1-2.2,0.3-3.3,0.5c-0.2,0-0.4,0.1-0.5,0.1
		c-0.9,0.2-1.8,0.5-2.6,0.8c-1,0.4-2.1,0.8-3.1,1.3c-1,0.5-2,1-2.9,1.6c-0.9,0.6-1.8,1.2-2.7,1.9c-0.4,0.3-0.8,0.7-1.2,1
		c-0.4,0.4-0.8,0.8-1.2,1.2c-0.8,0.8-1.5,1.6-2.2,2.5c-0.7,0.9-1.3,1.8-1.9,2.7c-0.3,0.5-0.6,1-0.9,1.6c-1,2.1-1.8,4.2-2.3,6.5
		c-0.4,2-0.6,4-0.6,6.1c0,0.1,0,0.2,0,0.2c0,0.2,0,0.3,0,0.5c0,0.2,0,0.4,0,0.5c0,0.2,0,0.4,0,0.7c0,0.3,0,0.6,0.1,0.8
		c0,0.3,0.1,0.5,0.1,0.8c0,0.3,0.1,0.6,0.1,0.8c0,0.1,0,0.1,0,0.2c0.2,1,0.4,2,0.6,3c0.6,2.2,1.4,4.4,2.5,6.4
		c0.4,0.8,0.9,1.5,1.4,2.2c0.7,1,1.5,2,2.3,3c6.2,6.8,15.8,10.2,24.9,8.9C62.5,76.3,70.7,70.2,74.7,61.9z M69.2,49.8
		c0,11-8.9,19.9-19.9,19.9c-6.8,0-12.8-3.4-16.4-8.6c-2.2-3.2-3.5-7.1-3.5-11.3c0-11,8.9-19.9,19.9-19.9c0.3,0,0.6,0.1,0.9,0.1
		C60.8,30.5,69.2,39.1,69.2,49.8z M49.3,22.8c0.2,0,0.3,0,0.5,0l0,0l3.3,3.3l-3.3,2.8c-0.1,0-0.3,0-0.4,0
		c-11.5,0-20.9,9.4-20.9,20.9c0,3.4,0.8,6.8,2.5,9.8l-3-0.7l-1.1-0.2l-0.2,1.1l-0.5,3.9c-2.5-4.2-3.9-8.9-3.9-13.9
		C22.2,34.9,34.4,22.8,49.3,22.8z"/>
</g>
</svg>
