<svg id="Layer_1" data-name="Layer 1" xmlns="http://www.w3.org/2000/svg" viewBox="0 0 100 100"><defs><style>.cls-1{fill:#fff;}</style></defs><circle cx="50" cy="50.02" r="36.59"/><path d="M71.71,50A21.71,21.71,0,1,1,50,28.31,21.71,21.71,0,0,1,71.71,50ZM50,14.61A35.41,35.41,0,1,0,85.41,50,35.41,35.41,0,0,0,50,14.61Z"/><path class="cls-1" d="M85.41,50a35.41,35.41,0,0,1-70.82,0h13.7a21.63,21.63,0,0,0,3.89,12.4l18.2-18.2L33.78,41H63.55L43.3,55.11l10.18,3-2.78-5.8,4.36-3,2.5,13.3L43.27,55.13,32.39,62.72A21.71,21.71,0,0,0,71.71,50Z"/><path class="cls-1" d="M66.29,39H55.57l5.35-5.35A19.4,19.4,0,0,1,66.29,39Z"/><path class="cls-1" d="M17.35,44.22l.37-1.82,9.14,1.88-.38,1.82Z"/><path class="cls-1" d="M22.94,30.53l8.11,4.61-1,1.74-7.22-.16,5.53,3.15-.87,1.52-8.11-4.61,1-1.75,7.23.16-5.53-3.14Z"/><path class="cls-1" d="M27.2,25.81,32,22l1.1,1.37L29.75,26,31,27.58l2.68-2.14,1.1,1.38L32.1,29l2.37,3L33,33.1Z"/><path class="cls-1" d="M41.28,17.94a1.76,1.76,0,0,1,2.32,1.19l1.77,5.47a1.77,1.77,0,0,1-1.18,2.32l-3,1a1.76,1.76,0,0,1-2.32-1.19l-1.77-5.47a1.76,1.76,0,0,1,1.18-2.32Zm.66,2.11a.4.4,0,0,0-.56-.29l-2.08.68A.39.39,0,0,0,39,21l1.54,4.78a.41.41,0,0,0,.56.29l2.08-.68a.39.39,0,0,0,.28-.55Z"/><path class="cls-1" d="M53.36,26.38l-1.25-3.56-1.5-.1-.24,3.45L48.5,26l.67-9.3,4.74.34a1.75,1.75,0,0,1,1.7,2l-.15,2.18a1.74,1.74,0,0,1-1.39,1.67l1.29,3.63Zm.37-7.11a.4.4,0,0,0-.41-.48l-2.42-.17L50.74,21l2.41.17a.4.4,0,0,0,.47-.41Z"/><path class="cls-1" d="M65.38,31.29l-1.54-.85,3-5.45-4.05,3.17-1.19-.65.51-5.12-3,5.45L57.57,27l4.5-8.17,1.79,1-.52,6,4.74-3.63,1.8,1Z"/><path class="cls-1" d="M78.37,32.56,77,33.63,74.4,30.25l-1.53,1.16L75,34.15l-1.4,1.06-2.08-2.73-1.69,1.29,2.56,3.37-1.4,1.06-3.69-4.85,7.42-5.65Z"/><path class="cls-1" d="M82.33,42.5a1.75,1.75,0,0,1-1.26,2.27l-5.44,1.55a1.75,1.75,0,0,1-2.27-1.27L72,40.38l9-2.56Zm-7.4,1.62a.4.4,0,0,0,.54.31l4.74-1.35a.4.4,0,0,0,.3-.55l-.69-2.43-5.59,1.59Z"/><polygon points="25.56 60.05 22.32 60.46 25.13 58.72 24.88 57.94 21.58 58.17 24.46 56.61 24.12 55.56 19.94 58.15 20.25 59.1 23.24 58.9 20.69 60.48 20.98 61.4 25.89 61.06 25.56 60.05"/><polygon points="25.89 62.96 26.91 64.81 27.77 64.34 26.25 61.57 22.07 63.87 23.59 66.63 24.46 66.16 23.44 64.3 24.28 63.84 25.1 65.35 25.97 64.87 25.14 63.37 25.89 62.96"/><polygon points="31.2 70.03 31.92 69.37 29.59 66.86 29.56 66.83 28.84 67.49 29.67 68.38 26.93 70.92 26.89 70.96 27.59 71.72 30.38 69.14 31.2 70.03"/><polygon points="32.77 71.36 34.43 72.68 35.04 71.9 32.57 69.95 29.61 73.69 32.08 75.64 32.7 74.87 31.03 73.56 31.63 72.81 32.98 73.87 33.59 73.1 32.24 72.03 32.77 71.36"/><path d="M37.8,73.5l-1.2-.67a.93.93,0,0,0-1.32.37l-.38.69a1,1,0,0,0,.37,1.33l.92.82c.11.1.13.15.08.23L36,76.7a.17.17,0,0,1-.1.09.16.16,0,0,1-.13,0l-.88-.49a.17.17,0,0,1-.09-.1.16.16,0,0,1,0-.13l.23-.41-.88-.49-.32.56a1,1,0,0,0-.1.75.9.9,0,0,0,.48.57l1.26.71a1.09,1.09,0,0,0,.51.14.88.88,0,0,0,.81-.51l.42-.74a1.06,1.06,0,0,0-.38-1.33L36,74.49c-.11-.1-.12-.15-.08-.24l.22-.38a.24.24,0,0,1,.1-.1.17.17,0,0,1,.13,0l.81.45a.2.2,0,0,1,.09.1.16.16,0,0,1,0,.13l-.2.37.88.49.29-.52A.93.93,0,0,0,37.8,73.5Z"/><polygon points="39.04 75.25 40.18 75.67 38.88 79.23 39.85 79.59 41.16 76.02 42.3 76.44 42.63 75.53 39.37 74.34 39.04 75.25"/><path d="M46.41,77.82l-.95-.14a.3.3,0,0,0-.34.25l-.14.95a.29.29,0,0,0,.06.22.31.31,0,0,0,.19.12l1,.14h0a.3.3,0,0,0,.3-.26l.14-.95A.29.29,0,0,0,46.41,77.82Z"/><polygon points="51.66 78.39 50.7 76.52 49.57 76.58 51.21 79.61 51.31 81.26 52.34 81.2 52.25 79.55 53.5 76.43 53.53 76.36 52.4 76.42 51.66 78.39"/><path d="M57.7,76.42a.94.94,0,0,0-1.16-.74L55,76a.93.93,0,0,0-.73,1.16L54.91,80a1,1,0,0,0,.41.62.88.88,0,0,0,.5.14l.25,0,1.52-.35a.93.93,0,0,0,.74-1.16Zm-.55,3-1.07.24a.14.14,0,0,1-.13,0,.14.14,0,0,1-.07-.11l-.55-2.46c0-.11,0-.17.13-.2l1.06-.24h.06a.11.11,0,0,1,.08,0,.17.17,0,0,1,.06.11l.55,2.45C57.3,79.39,57.26,79.45,57.15,79.47Z"/><path d="M61.53,74l0,0-1,.39,1.37,3.37a.14.14,0,0,1-.09.22l-.95.39a.2.2,0,0,1-.13,0,.3.3,0,0,1-.09-.1l-1.35-3.33,0,0-1,.39,1.44,3.54a1,1,0,0,0,.52.54.84.84,0,0,0,.35.07,1.14,1.14,0,0,0,.4-.08l1.38-.56A.93.93,0,0,0,63,77.47Z"/><polygon points="67.62 71.09 67.04 70.31 64.29 72.35 64.25 72.38 64.83 73.16 65.81 72.44 68.04 75.44 68.07 75.48 68.91 74.86 66.64 71.82 67.62 71.09"/><path d="M71.52,68.76,70.73,68a.92.92,0,0,0-1.37,0l-1.7,1.74,3.42,3.32.72-.74-1.24-1.21.47-.47,1.73.65h0l.78-.8-1.83-.68A.93.93,0,0,0,71.52,68.76Zm-.84.86-.81.83-.78-.75.81-.83a.15.15,0,0,1,.24,0l.53.52A.15.15,0,0,1,70.68,69.62Z"/><path d="M75.7,66l-3.1-2.15,0,0-.59.86,3,2.07a.19.19,0,0,1,.09.11A.24.24,0,0,1,75,67l-.59.84a.24.24,0,0,1-.1.08.22.22,0,0,1-.13,0l-3-2,0,0-.59.85,3.14,2.18a1,1,0,0,0,.57.19h.16a1,1,0,0,0,.62-.42l.85-1.22a1,1,0,0,0,.18-.73A1,1,0,0,0,75.7,66Z"/><path d="M77.91,61.62l-.76-.36a1.06,1.06,0,0,0-1.31.46l-.75,1c-.09.12-.14.14-.23.09l-.4-.18a.17.17,0,0,1-.09-.1.15.15,0,0,1,0-.13l.41-.84a.15.15,0,0,1,.09-.1.16.16,0,0,1,.13,0l.37.18.44-.92-.54-.25a.91.91,0,0,0-1.29.46l-.59,1.24a.91.91,0,0,0,.46,1.29l.71.34a1.06,1.06,0,0,0,1.31-.45l.75-1c.09-.11.14-.13.23-.09l.44.21a.15.15,0,0,1,.08.23l-.43.91a.15.15,0,0,1-.23.08l-.42-.2-.43.91.58.28a1.08,1.08,0,0,0,.45.1.94.94,0,0,0,.85-.56l.62-1.31A.93.93,0,0,0,77.91,61.62Z"/><polygon points="76.28 57.41 76.63 56.24 75.69 55.97 74.73 59.25 74.72 59.3 75.65 59.58 75.99 58.41 79.59 59.46 79.64 59.47 79.93 58.48 76.28 57.41"/></svg>