<svg id="Layer_1" data-name="Layer 1" xmlns="http://www.w3.org/2000/svg" viewBox="0 0 100 100"><path d="M69.68,34.75l-.16,0,0-.16a45.72,45.72,0,0,0,.2-12.64,1.36,1.36,0,0,0-.63-1,1.41,1.41,0,0,0-1.2-.16A55.23,55.23,0,0,0,52.62,28l-.14.1-.1-.15a13.35,13.35,0,0,0-3.29-3.28c-3.86-2.83-9.54-4.86-16.88-6H32a1.39,1.39,0,0,0-1.38,1.13,30,30,0,0,0,0,12.41c.16.75.37,1.49.6,2.21l.06.18-.19,0c-7.15,1.34-10.63,3.25-10.63,5.86V51.83a29.54,29.54,0,1,0,59.08,0V40.46C79.54,38,76.31,36.09,69.68,34.75ZM66.91,24l.21-.08v.22c.33,4.49.22,10.85-2.13,15.67a23.65,23.65,0,0,1-3,4.57l0,0h-.07c-2,.2-4.17.35-6.37.45h-.26l.09-.25c1-2.4,3.06-6.89,6.2-9.9a1.41,1.41,0,0,0,0-2,1.43,1.43,0,0,0-2,0c-4.25,4.08-6.69,10.33-7.34,12.15l0,.11h-.12c-.68,0-1.37,0-2.06,0-1.09,0-2.17,0-3.24,0h-.13l0-.13a10.85,10.85,0,0,1,1.06-7.31C51,30.77,60,26.46,66.91,24Zm-33.8-2.21,0-.18.17,0c7.4,1.34,11.59,3.47,13.8,5a10.47,10.47,0,0,1,3.08,3l.07.12-.1.09a22.77,22.77,0,0,0-4,4.65l-.1.16-.15-.11a24,24,0,0,1-4.78-4.59,1.39,1.39,0,0,0-.88-.62,1.41,1.41,0,0,0-1.06.2,1.34,1.34,0,0,0-.61.89,1.42,1.42,0,0,0,.19,1.06,26.86,26.86,0,0,0,5.87,5.62l.1.08,0,.12a13.64,13.64,0,0,0-.94,7.27l0,.21-.94,0,0,0a1.32,1.32,0,0,0-.2-.12C42.06,44.42,30.71,38,33.11,21.83ZM23.34,40.36c.44-.65,2.81-2,8.89-3.11l.13,0,0,.12a25.32,25.32,0,0,0,2,3.34,24.85,24.85,0,0,0,2.88,3.39l.35.34-.49-.05c-2.14-.24-4.13-.54-5.91-.89-6.14-1.21-7.56-2.54-7.85-2.92l-.07-.1ZM76.72,51.83a26.72,26.72,0,1,1-53.44,0V44l.24.13a27.51,27.51,0,0,0,6.3,2A101.68,101.68,0,0,0,50,47.86a101.68,101.68,0,0,0,20.18-1.79,27.51,27.51,0,0,0,6.3-2l.24-.13Zm-.07-11.26c-.29.38-1.73,1.71-7.84,2.91-.84.17-1.75.32-2.69.47l-.4.06.24-.33a19.32,19.32,0,0,0,2.88-6.07l0-.15.15,0c5.92,1.19,7.32,2.5,7.61,2.87l.08.1Z"/></svg>