<svg id="svg" xmlns="http://www.w3.org/2000/svg" xmlns:xlink="http://www.w3.org/1999/xlink" width="400" height="397.7900552486188" viewBox="0, 0, 400,397.7900552486188" version="1.1"><g id="svgg"><path id="path0" d="M191.841 17.879 C 190.418 18.046,187.910 18.554,186.269 19.007 C 184.627 19.461,182.388 19.953,181.294 20.100 C 180.199 20.248,178.766 20.692,178.109 21.087 C 177.453 21.482,176.289 21.934,175.522 22.092 C 174.260 22.352,170.160 24.072,168.159 25.181 C 167.721 25.424,166.818 25.902,166.151 26.244 C 165.484 26.586,164.499 27.190,163.962 27.586 C 163.425 27.982,162.017 28.915,160.834 29.659 C 156.740 32.236,146.836 41.916,144.148 45.970 C 143.567 46.846,142.977 47.652,142.837 47.761 C 142.370 48.126,137.313 55.736,137.313 56.075 C 137.313 56.258,136.776 57.084,136.119 57.910 C 135.463 58.737,134.925 59.625,134.925 59.884 C 134.925 60.144,134.393 61.059,133.742 61.919 C 133.092 62.779,132.554 63.681,132.548 63.925 C 132.542 64.168,132.111 64.994,131.591 65.761 C 131.071 66.528,130.430 67.807,130.167 68.603 C 129.904 69.399,129.548 70.050,129.375 70.050 C 129.203 70.050,128.678 70.900,128.211 71.940 C 127.743 72.980,126.290 75.801,124.983 78.209 C 123.676 80.617,122.155 83.483,121.603 84.577 C 119.619 88.509,116.100 94.929,115.821 95.124 C 115.664 95.234,115.152 96.129,114.682 97.114 C 114.212 98.100,113.302 99.801,112.660 100.896 C 112.017 101.990,111.137 103.627,110.704 104.533 C 110.271 105.439,109.708 106.310,109.453 106.468 C 109.198 106.625,108.643 107.496,108.220 108.402 C 107.797 109.308,106.925 110.945,106.283 112.040 C 105.640 113.134,104.677 114.933,104.142 116.036 C 103.606 117.139,102.899 118.266,102.569 118.540 C 102.239 118.814,101.848 119.523,101.701 120.116 C 101.554 120.709,101.109 121.552,100.713 121.990 C 100.316 122.428,99.861 123.234,99.701 123.781 C 99.541 124.328,99.009 125.313,98.519 125.970 C 98.028 126.627,97.491 127.612,97.325 128.159 C 97.159 128.706,96.702 129.512,96.311 129.950 C 95.919 130.388,95.310 131.373,94.956 132.139 C 94.603 132.905,94.057 133.980,93.742 134.527 C 93.428 135.075,92.866 136.149,92.493 136.915 C 90.555 140.896,89.789 142.308,89.298 142.799 C 89.001 143.096,88.647 143.819,88.512 144.406 C 88.377 144.993,87.849 146.100,87.338 146.866 C 85.975 148.910,85.484 151.449,86.315 152.154 C 87.435 153.103,90.033 154.570,93.247 156.069 C 94.951 156.863,96.664 157.802,97.054 158.154 C 97.444 158.507,98.378 159.006,99.130 159.263 C 99.882 159.519,100.986 160.133,101.583 160.627 C 102.179 161.121,103.191 161.639,103.830 161.780 C 104.469 161.920,105.307 162.383,105.692 162.809 C 106.077 163.234,106.572 163.582,106.793 163.582 C 107.014 163.582,108.016 164.100,109.020 164.734 C 110.024 165.367,111.294 166.018,111.841 166.181 C 112.388 166.344,113.353 166.909,113.984 167.437 C 114.894 168.198,115.503 168.373,116.919 168.278 L 118.706 168.159 120.838 164.179 C 122.011 161.990,123.307 159.480,123.719 158.601 C 124.131 157.723,124.750 156.770,125.094 156.484 C 125.438 156.199,125.830 155.462,125.965 154.847 C 126.100 154.233,126.649 153.136,127.185 152.410 C 127.721 151.683,128.159 150.869,128.159 150.600 C 128.159 150.331,128.582 149.605,129.100 148.986 C 129.617 148.367,130.173 147.413,130.335 146.866 C 130.497 146.318,130.925 145.428,131.285 144.886 C 132.025 143.773,135.582 137.340,137.121 134.328 C 137.681 133.234,138.667 131.443,139.312 130.348 C 139.958 129.254,140.927 127.434,141.466 126.305 C 142.004 125.176,142.629 124.139,142.853 124.000 C 143.077 123.862,143.622 122.994,144.063 122.073 C 145.239 119.616,148.981 112.827,149.511 112.190 C 149.761 111.889,150.259 111.015,150.616 110.249 C 150.973 109.483,151.886 107.781,152.644 106.468 C 153.403 105.154,154.311 103.453,154.662 102.687 C 155.013 101.920,155.621 100.935,156.012 100.498 C 156.404 100.060,156.855 99.254,157.015 98.706 C 157.175 98.159,157.622 97.353,158.010 96.915 C 158.397 96.478,158.845 95.691,159.004 95.167 C 159.163 94.643,159.811 93.399,160.443 92.402 C 161.075 91.406,161.592 90.398,161.592 90.164 C 161.592 89.929,162.015 89.113,162.531 88.351 C 163.047 87.589,163.602 86.544,163.765 86.029 C 163.927 85.513,164.490 84.459,165.015 83.685 C 165.540 82.910,165.970 81.966,165.970 81.585 C 165.970 81.205,166.263 80.650,166.622 80.353 C 166.980 80.056,167.615 79.004,168.033 78.016 C 168.450 77.027,169.008 76.040,169.272 75.821 C 169.535 75.602,170.079 74.796,170.479 74.030 C 172.573 70.020,172.965 69.395,173.809 68.727 C 174.314 68.328,174.726 67.805,174.726 67.565 C 174.726 65.709,185.640 58.141,189.254 57.491 C 190.129 57.333,191.741 56.851,192.836 56.420 C 197.812 54.459,211.492 55.847,215.522 58.722 C 216.179 59.191,217.299 59.804,218.010 60.084 C 218.721 60.365,219.303 60.748,219.303 60.936 C 219.303 61.124,219.975 61.621,220.796 62.042 C 222.786 63.060,229.652 70.458,229.652 71.583 C 229.652 71.819,230.189 72.624,230.846 73.372 C 231.502 74.120,232.040 74.908,232.040 75.122 C 232.040 75.337,232.577 76.189,233.234 77.015 C 233.891 77.841,234.428 78.734,234.428 78.998 C 234.428 79.262,234.786 79.803,235.224 80.199 C 235.662 80.595,236.020 81.119,236.020 81.362 C 236.020 81.606,236.477 82.478,237.036 83.301 C 237.595 84.123,238.318 85.548,238.642 86.466 C 238.966 87.385,239.561 88.500,239.964 88.944 C 240.368 89.388,240.912 90.420,241.174 91.238 C 241.436 92.056,241.811 92.825,242.008 92.946 C 242.204 93.068,242.735 93.921,243.186 94.842 C 243.637 95.764,244.596 97.592,245.317 98.905 C 246.038 100.219,247.470 102.896,248.498 104.855 C 249.527 106.814,250.722 108.747,251.154 109.149 C 251.587 109.552,251.940 110.227,251.940 110.648 C 251.940 111.070,252.478 112.027,253.134 112.775 C 253.791 113.523,254.328 114.311,254.328 114.525 C 254.328 114.740,254.880 115.609,255.553 116.457 C 257.325 118.686,256.391 121.791,253.948 121.791 C 253.568 121.791,252.940 122.143,252.551 122.572 C 252.162 123.002,251.194 123.565,250.400 123.824 C 249.605 124.083,248.449 124.716,247.830 125.232 C 247.211 125.747,246.495 126.172,246.238 126.176 C 245.981 126.180,245.022 126.673,244.107 127.271 C 243.192 127.869,241.268 129.075,239.832 129.950 C 238.396 130.826,237.219 131.655,237.217 131.793 C 237.215 131.930,236.701 132.255,236.073 132.515 C 235.446 132.775,234.701 133.421,234.417 133.950 C 234.134 134.479,233.573 135.017,233.170 135.145 C 232.767 135.272,232.418 135.589,232.394 135.848 C 232.263 137.246,232.568 138.379,233.227 138.944 C 233.635 139.294,234.237 140.223,234.565 141.008 C 235.787 143.933,238.912 144.179,262.886 143.235 C 268.796 143.002,277.773 142.758,282.835 142.693 C 294.303 142.544,294.453 142.489,296.346 137.758 C 296.707 136.857,297.142 136.119,297.313 136.119 C 297.485 136.119,297.928 135.358,298.299 134.428 C 298.669 133.498,299.209 132.468,299.499 132.139 C 299.789 131.811,300.846 129.942,301.850 127.986 C 302.853 126.030,303.828 124.329,304.016 124.205 C 304.204 124.081,305.325 122.227,306.507 120.084 C 307.690 117.942,309.104 115.397,309.652 114.429 C 310.199 113.461,311.568 110.915,312.694 108.772 C 313.820 106.629,315.119 104.166,315.580 103.299 C 316.041 102.432,316.418 101.519,316.418 101.271 C 316.418 101.023,316.766 100.505,317.191 100.120 C 317.617 99.735,318.086 98.856,318.235 98.168 C 318.383 97.479,318.945 96.158,319.484 95.232 C 320.793 92.984,320.814 90.374,319.536 88.804 C 319.025 88.176,318.303 87.105,317.932 86.424 C 317.141 84.972,315.942 85.013,312.836 86.595 C 311.851 87.097,310.194 87.902,309.154 88.384 C 308.114 88.866,307.264 89.422,307.264 89.619 C 307.264 89.817,306.500 90.306,305.567 90.706 C 304.633 91.106,303.626 91.727,303.329 92.085 C 303.031 92.443,302.566 92.736,302.295 92.736 C 302.023 92.736,301.125 93.274,300.299 93.930 C 299.472 94.587,298.566 95.124,298.284 95.124 C 298.003 95.124,297.266 95.548,296.647 96.065 C 296.029 96.582,295.075 97.144,294.527 97.313 C 293.980 97.483,293.026 98.045,292.407 98.562 C 290.263 100.355,288.747 98.950,285.367 92.040 C 284.912 91.109,284.378 90.348,284.181 90.348 C 283.983 90.348,283.284 89.229,282.626 87.861 C 281.968 86.493,280.795 84.394,280.019 83.198 C 279.242 82.001,278.607 80.816,278.607 80.565 C 278.607 80.313,278.271 79.680,277.861 79.158 C 277.451 78.636,276.266 76.550,275.229 74.523 C 274.192 72.496,273.185 70.739,272.991 70.620 C 272.798 70.500,272.259 69.517,271.793 68.435 C 271.328 67.353,270.817 66.468,270.658 66.468 C 270.499 66.468,270.064 65.796,269.691 64.975 C 268.702 62.798,267.185 60.099,266.532 59.354 C 266.219 58.998,265.581 57.945,265.113 57.015 C 264.645 56.085,264.104 55.323,263.911 55.323 C 263.718 55.323,263.361 54.831,263.118 54.229 C 262.450 52.579,257.069 45.074,253.821 41.264 C 250.572 37.453,244.245 31.415,241.639 29.638 C 240.190 28.651,238.557 27.517,238.010 27.117 C 235.778 25.489,233.758 24.279,233.274 24.279 C 232.991 24.279,232.283 23.939,231.700 23.524 C 231.117 23.109,229.877 22.564,228.946 22.313 C 228.014 22.062,226.672 21.519,225.964 21.106 C 225.256 20.693,223.602 20.164,222.289 19.929 C 220.975 19.695,218.915 19.120,217.711 18.651 C 215.324 17.723,197.652 17.195,191.841 17.879 M313.762 149.000 C 313.143 149.518,312.189 150.075,311.642 150.239 C 311.095 150.403,310.199 150.942,309.652 151.436 C 309.104 151.931,308.198 152.443,307.637 152.574 C 307.076 152.706,306.091 153.266,305.448 153.819 C 304.805 154.372,304.068 154.825,303.812 154.825 C 303.555 154.826,302.813 155.274,302.162 155.821 C 301.512 156.368,300.706 156.816,300.371 156.816 C 300.036 156.816,299.255 157.243,298.634 157.765 C 298.013 158.288,296.880 158.981,296.116 159.307 C 295.352 159.633,294.296 160.280,293.770 160.746 C 293.244 161.211,292.496 161.592,292.109 161.592 C 291.721 161.592,290.886 162.028,290.253 162.561 C 289.619 163.094,288.637 163.647,288.071 163.789 C 285.922 164.328,284.651 166.640,285.736 168.034 C 286.131 168.541,286.844 169.761,287.323 170.746 C 287.801 171.731,288.797 173.612,289.536 174.925 C 290.275 176.239,291.343 178.209,291.909 179.303 C 292.476 180.398,293.467 182.189,294.111 183.284 C 294.756 184.378,295.656 186.027,296.111 186.949 C 296.566 187.870,297.122 188.737,297.346 188.876 C 297.570 189.014,298.185 190.052,298.713 191.181 C 299.856 193.627,303.926 201.041,307.347 206.907 C 307.940 207.924,308.796 209.510,309.249 210.431 C 309.702 211.353,310.261 212.223,310.492 212.366 C 310.723 212.508,311.269 213.366,311.705 214.273 C 312.935 216.826,314.151 219.034,315.038 220.319 C 315.483 220.965,316.167 222.119,316.558 222.886 C 316.949 223.652,317.791 225.174,318.429 226.269 C 319.067 227.363,319.955 228.975,320.401 229.851 C 320.847 230.726,321.858 232.517,322.646 233.831 C 324.696 237.244,325.482 238.619,328.068 243.311 C 329.332 245.603,330.630 247.699,330.954 247.967 C 331.278 248.236,331.542 248.609,331.542 248.797 C 331.542 248.985,332.413 250.441,333.478 252.032 C 334.542 253.623,335.727 255.552,336.111 256.318 C 336.495 257.085,337.126 258.070,337.513 258.507 C 337.900 258.945,338.351 259.751,338.514 260.299 C 338.677 260.846,339.146 261.769,339.555 262.350 C 339.964 262.931,340.304 263.558,340.311 263.743 C 340.318 263.928,340.855 265.150,341.505 266.458 C 342.155 267.765,342.691 269.198,342.695 269.642 C 342.700 270.085,343.060 271.233,343.495 272.192 C 345.866 277.417,344.659 290.683,341.482 294.328 C 341.100 294.766,340.653 295.572,340.487 296.119 C 339.726 298.640,335.282 303.151,331.516 305.229 C 330.735 305.659,329.878 306.274,329.611 306.596 C 329.344 306.917,328.461 307.304,327.648 307.454 C 326.834 307.605,325.628 308.061,324.966 308.468 C 324.304 308.875,322.692 309.395,321.384 309.625 C 320.075 309.855,318.020 310.315,316.816 310.648 C 311.773 312.044,260.040 312.789,256.318 311.520 L 254.925 311.045 254.858 296.335 C 254.781 279.308,255.371 281.067,249.718 281.023 L 246.103 280.995 244.743 282.675 C 243.995 283.600,243.162 284.809,242.892 285.362 C 242.621 285.915,241.688 287.443,240.817 288.756 C 239.946 290.070,239.036 291.592,238.794 292.139 C 238.553 292.687,238.029 293.493,237.630 293.930 C 237.231 294.368,236.215 296.070,235.372 297.711 C 234.529 299.353,233.538 300.921,233.170 301.195 C 232.802 301.468,232.385 302.221,232.243 302.867 C 232.101 303.514,231.664 304.454,231.271 304.956 C 230.878 305.459,230.130 306.662,229.607 307.628 C 229.084 308.595,228.173 310.207,227.582 311.211 C 226.991 312.214,226.036 313.930,225.460 315.025 C 224.883 316.119,223.809 318.090,223.073 319.403 C 222.336 320.716,221.352 322.507,220.886 323.383 C 218.661 327.565,218.247 328.286,217.400 329.453 C 216.335 330.922,216.506 332.296,217.971 334.060 C 218.485 334.679,218.905 335.317,218.905 335.478 C 218.905 335.639,219.270 336.161,219.714 336.639 C 220.159 337.116,220.887 338.269,221.331 339.201 C 222.521 341.700,223.530 343.452,224.213 344.207 C 224.546 344.575,225.165 345.684,225.589 346.672 C 226.012 347.660,226.652 348.712,227.010 349.010 C 227.369 349.307,227.662 349.710,227.662 349.906 C 227.662 350.293,232.497 359.065,234.652 362.587 C 235.389 363.791,236.176 365.134,236.401 365.572 C 237.225 367.172,239.844 371.353,241.493 373.701 C 242.423 375.026,243.191 376.247,243.200 376.413 C 243.209 376.580,243.894 377.465,244.721 378.379 L 246.226 380.041 249.888 380.147 C 255.235 380.301,254.858 381.308,254.782 367.091 C 254.715 354.473,255.056 351.215,256.570 350.015 C 257.331 349.411,277.179 349.441,302.687 350.083 C 314.287 350.375,327.835 349.509,331.049 348.270 C 332.201 347.826,333.544 347.462,334.034 347.461 C 334.524 347.460,336.000 346.924,337.313 346.269 C 338.627 345.614,339.990 345.077,340.342 345.076 C 340.695 345.075,341.599 344.657,342.350 344.147 C 343.102 343.637,344.300 343.016,345.012 342.768 C 345.724 342.520,346.770 341.952,347.336 341.507 C 347.903 341.061,348.600 340.697,348.885 340.697 C 349.170 340.697,349.992 340.159,350.711 339.502 C 351.430 338.846,352.207 338.308,352.438 338.308 C 352.669 338.308,353.334 337.816,353.917 337.214 C 354.500 336.612,355.569 335.672,356.292 335.124 C 358.457 333.486,365.670 325.989,367.370 323.610 C 370.006 319.921,371.741 317.253,371.741 316.887 C 371.741 316.697,372.089 316.226,372.515 315.841 C 372.940 315.456,373.397 314.645,373.531 314.038 C 373.664 313.431,374.211 312.340,374.747 311.614 C 375.283 310.887,375.721 310.012,375.721 309.668 C 375.721 309.324,376.099 308.339,376.560 307.479 C 377.329 306.043,378.831 302.017,379.684 299.104 C 379.876 298.448,380.223 296.746,380.454 295.323 C 380.685 293.900,381.150 291.751,381.487 290.547 C 383.278 284.154,382.663 273.829,379.721 260.896 C 379.180 258.519,377.782 254.341,376.924 252.537 C 376.508 251.662,375.992 250.276,375.779 249.458 C 375.565 248.640,375.107 247.687,374.760 247.340 C 374.414 246.994,374.017 246.230,373.877 245.644 C 373.623 244.573,371.394 240.266,370.133 238.408 C 369.762 237.861,369.320 236.965,369.152 236.418 C 368.983 235.871,368.496 234.975,368.068 234.428 C 367.641 233.881,367.038 232.896,366.729 232.239 C 366.420 231.582,365.629 230.239,364.972 229.254 C 364.316 228.269,363.465 226.953,363.083 226.330 C 361.727 224.121,358.395 218.900,357.523 217.619 C 357.036 216.904,356.289 215.577,355.864 214.671 C 355.439 213.764,354.882 212.894,354.627 212.736 C 354.372 212.579,353.817 211.708,353.393 210.802 C 352.970 209.896,351.669 207.542,350.503 205.572 C 349.337 203.602,347.346 200.199,346.078 198.010 C 344.810 195.821,343.175 193.045,342.443 191.841 C 341.711 190.637,340.756 188.935,340.319 188.060 C 339.223 185.860,337.559 183.071,336.667 181.936 C 336.256 181.414,335.920 180.756,335.920 180.474 C 335.920 180.192,335.473 179.429,334.925 178.779 C 334.378 178.129,333.930 177.461,333.930 177.295 C 333.930 177.129,333.090 175.543,332.063 173.770 C 331.036 171.998,329.768 169.741,329.246 168.756 C 328.724 167.771,327.777 166.070,327.142 164.975 C 326.507 163.881,325.674 162.358,325.291 161.592 C 324.908 160.826,324.188 159.693,323.690 159.074 C 323.193 158.455,322.786 157.766,322.786 157.543 C 322.786 157.320,322.383 156.575,321.891 155.887 C 321.398 155.200,320.672 154.008,320.277 153.239 C 317.406 147.646,316.268 146.905,313.762 149.000 M166.855 164.202 C 165.657 165.041,165.455 180.172,166.629 181.145 C 167.168 181.593,171.089 181.693,188.311 181.702 C 210.955 181.714,210.730 181.692,209.569 183.735 C 208.817 185.060,207.053 187.543,206.647 187.849 C 206.329 188.089,204.058 191.518,202.347 194.341 C 201.713 195.387,200.714 196.874,200.127 197.645 C 199.540 198.416,198.946 199.562,198.807 200.192 C 198.669 200.822,198.326 201.528,198.046 201.761 C 197.765 201.994,197.206 202.947,196.803 203.878 C 196.399 204.810,195.857 205.841,195.598 206.169 C 195.338 206.498,194.914 207.427,194.655 208.234 C 194.395 209.041,193.853 210.122,193.449 210.636 C 193.044 211.150,192.501 212.370,192.240 213.347 C 191.980 214.325,191.531 215.393,191.244 215.721 C 190.956 216.050,190.511 217.124,190.254 218.109 C 189.997 219.095,189.463 220.459,189.067 221.142 C 188.671 221.825,188.153 223.287,187.916 224.391 C 187.680 225.495,187.135 227.086,186.705 227.926 C 186.276 228.766,185.797 230.339,185.642 231.421 C 185.486 232.504,185.040 234.116,184.650 235.003 C 184.261 235.891,183.757 237.960,183.531 239.602 C 183.305 241.244,182.828 243.393,182.471 244.378 C 181.039 248.329,180.099 264.013,181.248 264.770 C 182.068 265.311,198.125 265.131,198.484 264.577 C 198.661 264.303,199.012 261.638,199.264 258.654 C 199.516 255.670,199.900 252.894,200.117 252.485 C 200.335 252.076,200.727 249.682,200.990 247.164 C 201.252 244.647,201.803 241.602,202.214 240.398 C 202.624 239.194,203.236 236.703,203.573 234.862 C 203.910 233.022,204.369 231.295,204.593 231.026 C 204.817 230.756,205.271 229.236,205.602 227.647 C 205.933 226.057,206.555 224.312,206.983 223.768 C 207.411 223.224,207.761 222.292,207.761 221.697 C 207.761 221.103,208.176 219.828,208.684 218.865 C 209.191 217.902,209.840 216.267,210.126 215.231 C 210.412 214.196,210.892 213.145,211.191 212.897 C 211.491 212.648,211.924 211.745,212.154 210.891 C 212.384 210.036,213.012 208.689,213.550 207.896 C 214.087 207.104,214.527 206.294,214.527 206.095 C 214.527 205.774,215.526 203.936,218.905 198.036 C 219.453 197.081,220.311 195.557,220.813 194.650 C 221.314 193.744,222.075 192.651,222.504 192.222 C 222.933 191.794,223.284 191.243,223.284 190.998 C 223.284 190.753,223.821 189.941,224.478 189.193 C 225.134 188.445,225.672 187.610,225.672 187.338 C 225.672 187.066,226.164 186.370,226.766 185.790 C 227.368 185.210,228.273 184.230,228.777 183.612 C 229.281 182.994,230.210 181.919,230.840 181.225 C 233.749 178.024,233.930 177.455,234.143 170.830 C 234.303 165.836,234.234 164.639,233.758 164.163 C 232.850 163.255,168.153 163.293,166.855 164.202 M34.940 172.746 C 34.138 173.407,33.360 174.348,33.213 174.835 C 33.066 175.323,32.496 176.202,31.946 176.790 C 30.429 178.410,30.901 180.249,33.138 181.439 C 34.066 181.933,35.900 182.942,37.214 183.682 C 38.527 184.421,40.356 185.401,41.277 185.858 C 42.198 186.315,43.069 186.878,43.211 187.109 C 43.354 187.340,44.212 187.883,45.118 188.316 C 47.526 189.466,49.317 190.493,50.077 191.159 C 50.445 191.481,51.373 192.056,52.139 192.435 C 54.167 193.440,55.721 195.036,55.721 196.113 C 55.721 197.167,52.672 203.009,51.864 203.502 C 51.578 203.677,51.343 204.040,51.343 204.309 C 51.343 204.858,47.977 210.388,47.122 211.243 C 46.817 211.549,46.567 212.029,46.567 212.312 C 46.567 212.595,46.030 213.502,45.373 214.328 C 44.716 215.155,44.179 216.007,44.179 216.222 C 44.179 216.695,42.401 219.585,40.896 221.560 C 40.294 222.349,39.801 223.329,39.801 223.736 C 39.801 224.144,39.450 224.828,39.021 225.257 C 38.593 225.686,37.867 226.716,37.409 227.546 C 35.995 230.106,34.708 232.215,34.237 232.743 C 33.989 233.021,33.573 233.740,33.311 234.342 C 33.050 234.944,32.516 235.882,32.124 236.425 C 30.530 238.639,29.069 241.020,29.062 241.415 C 29.058 241.646,28.611 242.436,28.069 243.171 C 27.527 243.906,26.879 245.149,26.627 245.935 C 26.376 246.720,25.857 247.721,25.473 248.159 C 25.089 248.597,24.551 249.672,24.277 250.547 C 24.004 251.423,23.544 252.411,23.256 252.743 C 22.968 253.075,22.533 254.239,22.289 255.330 C 22.046 256.421,21.495 257.911,21.066 258.641 C 20.637 259.370,20.115 261.072,19.907 262.422 C 19.699 263.771,19.168 267.204,18.728 270.050 C 17.685 276.802,17.997 288.433,19.277 290.505 C 19.379 290.670,19.659 292.383,19.899 294.313 C 20.138 296.242,20.572 298.288,20.862 298.860 C 21.151 299.432,21.674 301.041,22.023 302.436 C 22.372 303.830,22.905 305.352,23.209 305.819 C 23.512 306.285,23.991 307.383,24.274 308.259 C 24.556 309.134,25.097 310.299,25.476 310.846 C 25.854 311.393,26.298 312.289,26.461 312.836 C 26.625 313.383,27.079 314.189,27.471 314.627 C 27.862 315.065,28.513 315.972,28.917 316.642 C 30.442 319.173,31.404 320.616,31.953 321.194 C 32.265 321.522,32.848 322.303,33.250 322.930 C 33.651 323.556,34.439 324.547,35.000 325.131 C 35.561 325.716,36.668 326.905,37.460 327.774 C 38.252 328.643,39.506 329.851,40.246 330.460 C 40.986 331.068,42.330 332.187,43.232 332.947 C 44.134 333.707,45.068 334.328,45.308 334.328 C 45.547 334.328,45.928 334.674,46.155 335.097 C 46.381 335.520,46.965 335.993,47.453 336.148 C 48.424 336.456,51.779 338.602,53.297 339.886 C 53.824 340.332,54.541 340.702,54.889 340.709 C 55.237 340.716,56.239 341.163,57.114 341.702 C 57.990 342.241,58.993 342.683,59.344 342.685 C 59.694 342.686,60.824 343.135,61.855 343.683 C 62.886 344.231,64.928 344.970,66.392 345.326 C 67.857 345.681,69.451 346.217,69.936 346.518 C 70.420 346.818,71.942 347.228,73.319 347.429 C 74.695 347.631,76.896 348.090,78.209 348.450 C 81.535 349.363,95.691 349.995,113.234 350.014 C 142.787 350.046,200.397 349.349,200.896 348.954 C 201.474 348.495,201.626 313.421,201.053 312.519 C 200.639 311.865,126.703 311.819,111.151 312.463 C 97.931 313.009,82.238 312.136,79.005 310.672 C 77.910 310.177,76.527 309.653,75.931 309.508 C 75.334 309.363,74.190 308.798,73.388 308.254 C 72.585 307.709,71.781 307.264,71.600 307.264 C 71.420 307.264,70.863 306.902,70.362 306.461 C 66.065 302.668,64.355 300.912,63.068 298.971 C 62.246 297.731,61.267 296.265,60.892 295.714 C 60.518 295.162,60.086 294.267,59.932 293.724 C 59.779 293.181,59.223 291.841,58.698 290.746 C 56.478 286.118,56.465 272.851,58.677 268.060 C 59.182 266.965,59.714 265.569,59.859 264.958 C 60.005 264.347,61.103 262.077,62.300 259.914 C 63.498 257.751,64.478 255.816,64.478 255.615 C 64.478 255.413,64.836 254.924,65.274 254.527 C 65.711 254.131,66.070 253.602,66.070 253.351 C 66.070 252.887,69.151 247.927,69.665 247.562 C 69.819 247.453,70.432 246.468,71.026 245.373 C 72.092 243.410,73.276 241.346,75.224 238.053 C 75.771 237.128,76.614 235.643,77.097 234.753 C 77.580 233.864,78.259 232.822,78.607 232.438 C 79.235 231.743,80.569 229.437,81.770 226.965 C 82.116 226.254,82.582 225.672,82.806 225.672 C 83.029 225.672,83.541 224.910,83.943 223.980 C 84.344 223.050,85.054 221.947,85.521 221.530 C 85.987 221.113,86.368 220.553,86.368 220.286 C 86.368 220.018,86.650 219.565,86.994 219.279 C 87.339 218.994,87.976 218.063,88.410 217.212 C 89.551 214.976,91.383 214.254,92.736 215.507 C 93.284 216.013,94.179 216.558,94.726 216.717 C 95.274 216.877,96.096 217.349,96.555 217.768 C 97.387 218.529,99.661 219.854,102.289 221.111 C 103.055 221.477,103.817 222.013,103.983 222.302 C 104.149 222.590,104.955 223.044,105.774 223.311 C 106.593 223.578,107.770 224.219,108.389 224.734 C 109.008 225.250,109.744 225.672,110.025 225.672 C 110.306 225.672,111.163 226.097,111.930 226.618 C 112.697 227.138,114.008 227.790,114.843 228.065 L 116.361 228.566 117.865 226.820 C 118.692 225.860,119.577 224.582,119.832 223.980 C 120.087 223.378,120.453 222.886,120.645 222.886 C 121.238 222.886,121.031 220.227,120.398 219.701 C 120.070 219.429,119.801 218.986,119.801 218.718 C 119.801 218.449,119.267 217.441,118.614 216.478 C 117.961 215.515,117.424 214.437,117.420 214.084 C 117.416 213.730,117.025 212.947,116.551 212.344 C 116.076 211.741,114.898 209.713,113.933 207.837 C 112.968 205.961,111.833 203.988,111.412 203.453 C 110.991 202.918,110.647 202.297,110.647 202.073 C 110.647 201.850,110.215 201.102,109.688 200.410 C 109.161 199.719,108.439 198.538,108.083 197.786 C 107.159 195.829,105.494 192.937,104.890 192.239 C 104.605 191.910,104.263 191.284,104.129 190.846 C 103.995 190.408,103.437 189.529,102.888 188.893 C 102.339 188.257,101.891 187.520,101.891 187.255 C 101.891 186.991,101.504 186.283,101.032 185.682 C 100.161 184.575,99.243 182.981,97.300 179.204 C 96.709 178.055,96.085 177.114,95.913 177.114 C 95.741 177.114,95.419 176.595,95.198 175.960 C 94.976 175.324,94.132 174.071,93.321 173.174 L 91.848 171.542 64.124 171.542 L 36.400 171.542 34.940 172.746 " stroke="none" fill="#ffffff" fill-rule="evenodd"></path></g></svg>